# xmcd
#
# Track frame offsets:
#	150
#	15770
#	28042
#	41650
#	54777
#	67785
#	82655
#	97307
#	109397
#	122657
#	141157
#	150832
#
# Disc length: 2160 seconds
#
# Revision: 0
# Processed by: cddbd v1.5.2PL0 Copyright (c) Steve Scherf et al.
# Submitted via: audiograbber 1.83.01
#
DISCID=86086e0c
DTITLE=Craig Duncan, et. al. - Smoky Mountain Sunday
DYEAR=1993
DGENRE=Bluegrass
TTITLE0=Bringing in the Sheaves
TTITLE1=Swing Low, Sweet Chariot
TTITLE2=Gospel Train
TTITLE3=What Wondrous Love is This
TTITLE4=At the Cross/On Jordan's Stormy Banks
TTITLE5=Sweet Hour of Prayer
TTITLE6=This is my Father's World/He's Got the Whole World in his Hands
TTITLE7=Rise Up
TTITLE8=In the Garden
TTITLE9=I Love to Tell The Story
TTITLE10=Simple Gifts
TTITLE11=My Savior's Love
EXTD=
EXTT0=
EXTT1=
EXTT2=
EXTT3=
EXTT4=
EXTT5=
EXTT6=
EXTT7=
EXTT8=
EXTT9=
EXTT10=
EXTT11=
PLAYORDER=
